<?xml version="1.0" encoding="utf-8"?><svg viewBox="0 0 24 24" xmlns="http://www.w3.org/2000/svg" xmlns:xlink="http://www.w3.org/1999/xlink"><style>:root>svg{display:none}:root>svg:target{display:block}</style><svg viewBox="0 0 24 24" id="modal-form-close-btn" xmlns="http://www.w3.org/2000/svg"><path fill-rule="evenodd" clip-rule="evenodd" d="M4.293 4.293a1 1 0 011.414 0L12 10.586l6.293-6.293a1 1 0 111.414 1.414L13.414 12l6.293 6.293a1 1 0 01-1.414 1.414L12 13.414l-6.293 6.293a1 1 0 01-1.414-1.414L10.586 12 4.293 5.707a1 1 0 010-1.414z"/></svg><svg viewBox="0 0 24 24" id="send-form-btn" xmlns="http://www.w3.org/2000/svg"><path fill-rule="evenodd" clip-rule="evenodd" d="M14.793 6.793a1 1 0 011.414 0l4.5 4.5a1 1 0 010 1.414l-4.5 4.5a1 1 0 01-1.414-1.414L17.586 13H4a1 1 0 110-2h13.586l-2.793-2.793a1 1 0 010-1.414z"/></svg><svg viewBox="0 0 24 24" id="slider-nav-btn-next" xmlns="http://www.w3.org/2000/svg"><path fill-rule="evenodd" clip-rule="evenodd" d="M14.793 6.793a1 1 0 011.414 0l4.5 4.5a1 1 0 010 1.414l-4.5 4.5a1 1 0 01-1.414-1.414L17.586 13H4a1 1 0 110-2h13.586l-2.793-2.793a1 1 0 010-1.414z"/></svg><svg viewBox="0 0 24 24" id="slider-nav-btn-prev" xmlns="http://www.w3.org/2000/svg"><path fill-rule="evenodd" clip-rule="evenodd" d="M9.207 17.207a1 1 0 01-1.414 0l-4.5-4.5a1 1 0 010-1.414l4.5-4.5a1 1 0 011.414 1.414L6.414 11H20a1 1 0 110 2H6.414l2.793 2.793a1 1 0 010 1.414z"/></svg><svg viewBox="0 0 24 24" id="social-facebook" xmlns="http://www.w3.org/2000/svg"><path d="M17.563 1.005L14.786 1c-3.12 0-5.137 2.125-5.137 5.414v2.497H6.857c-.242 0-.437.2-.437.448v3.617c0 .248.196.449.437.449h2.792v9.126c0 .248.195.449.437.449h3.643a.443.443 0 00.437-.449v-9.126h3.265c.241 0 .436-.2.436-.449l.002-3.617a.456.456 0 00-.128-.317.431.431 0 00-.31-.131h-3.265V6.794c0-1.017.236-1.533 1.525-1.533h1.871c.241 0 .437-.202.437-.45V1.454a.443.443 0 00-.436-.448z"/></svg><svg viewBox="0 0 20 20" id="social-google" xmlns="http://www.w3.org/2000/svg"><path d="M10.176 8.752h8.23c.09.507.135.992.135 1.453 0 1.642-.344 3.108-1.033 4.399a7.458 7.458 0 01-2.945 3.025c-1.275.726-2.738 1.09-4.387 1.09a8.57 8.57 0 01-3.394-.687A8.718 8.718 0 014 16.176a8.719 8.719 0 01-1.856-2.781A8.57 8.57 0 011.458 10c0-1.188.229-2.32.687-3.394A8.717 8.717 0 014 3.826 8.718 8.718 0 016.78 1.97a8.57 8.57 0 013.395-.687c2.27 0 4.218.76 5.845 2.282L13.65 5.846c-.93-.9-2.089-1.35-3.473-1.35-.977 0-1.879.245-2.708.737A5.437 5.437 0 005.5 7.237 5.456 5.456 0 004.773 10c0 .999.242 1.92.726 2.764a5.437 5.437 0 001.97 2.003 5.21 5.21 0 002.707.738c.658 0 1.263-.09 1.816-.272.552-.182 1.006-.409 1.362-.681.356-.273.666-.583.93-.931.266-.348.46-.678.585-.988.125-.31.21-.605.256-.885h-4.95V8.752z"/></svg><svg viewBox="0 0 24 24" id="social-instagram" xmlns="http://www.w3.org/2000/svg"><path d="M21.98 7.88c-.046-1.063-.218-1.793-.464-2.426a4.88 4.88 0 00-1.157-1.774 4.922 4.922 0 00-1.77-1.153c-.637-.246-1.363-.418-2.426-.464-1.07-.051-1.41-.063-4.126-.063-2.715 0-3.055.012-4.122.059-1.062.046-1.793.218-2.426.464A4.88 4.88 0 003.715 3.68a4.924 4.924 0 00-1.152 1.77c-.247.637-.418 1.363-.465 2.426-.051 1.07-.063 1.41-.063 4.126 0 2.715.012 3.055.059 4.122.047 1.063.219 1.793.465 2.426a4.932 4.932 0 001.156 1.774c.5.508 1.106.902 1.77 1.152.637.247 1.364.419 2.426.465 1.067.047 1.407.059 4.122.059 2.716 0 3.056-.012 4.122-.059 1.063-.046 1.793-.218 2.426-.464a5.116 5.116 0 002.927-2.927c.246-.637.418-1.364.465-2.426.047-1.067.058-1.407.058-4.122s-.004-3.055-.05-4.122zm-1.8 8.166c-.044.977-.208 1.504-.345 1.855a3.317 3.317 0 01-1.898 1.9c-.352.136-.883.3-1.856.343-1.055.047-1.371.059-4.04.059-2.668 0-2.989-.012-4.04-.059-.977-.043-1.504-.207-1.856-.344a3.077 3.077 0 01-1.148-.746 3.11 3.11 0 01-.747-1.148c-.136-.352-.3-.883-.343-1.856-.047-1.055-.059-1.372-.059-4.04 0-2.669.012-2.99.059-4.04.043-.977.207-1.504.343-1.856A3.04 3.04 0 015 4.965a3.105 3.105 0 011.15-.746c.35-.137.882-.3 1.855-.344 1.055-.046 1.372-.058 4.04-.058 2.672 0 2.989.012 4.04.058.977.043 1.504.207 1.856.344.433.16.828.414 1.148.746.332.325.586.715.747 1.15.136.35.3.882.343 1.855.047 1.055.059 1.371.059 4.04 0 2.668-.012 2.98-.059 4.036z"/><path d="M12.037 6.864A5.139 5.139 0 006.9 12.002a5.139 5.139 0 105.138-5.138zm0 8.47a3.333 3.333 0 11.001-6.666 3.333 3.333 0 010 6.667zM18.578 6.661a1.2 1.2 0 11-2.4 0 1.2 1.2 0 012.4 0z"/></svg><svg viewBox="0 0 24 24" id="social-linkedin" xmlns="http://www.w3.org/2000/svg"><path d="M21.995 22H22v-7.336c0-3.588-.773-6.352-4.968-6.352-2.016 0-3.37 1.106-3.922 2.155h-.058v-1.82H9.074v13.352h4.142v-6.611c0-1.741.33-3.425 2.486-3.425 2.124 0 2.156 1.987 2.156 3.536V22h4.137zM2.33 8.648h4.147V22H2.33V8.648zM4.402 2A2.402 2.402 0 002 4.402c0 1.325 1.076 2.424 2.402 2.424 1.325 0 2.401-1.098 2.401-2.424A2.403 2.403 0 004.402 2z"/></svg><svg viewBox="0 0 16 16" id="social-mailto" xmlns="http://www.w3.org/2000/svg"><path fill-rule="evenodd" clip-rule="evenodd" d="M15.167 12V4.665a2 2 0 00-2-2H2.833a2 2 0 00-2 2v7.333a2 2 0 002 2h10.334a2 2 0 002-2zm-1.333-5.828V12a.667.667 0 01-.667.667H2.833a.667.667 0 01-.666-.667V6.172l4.709 3.202a2 2 0 002.249 0l4.709-3.202zm-.008-1.607a.667.667 0 00-.66-.566H2.834a.667.667 0 00-.659.566l5.451 3.707a.667.667 0 00.75 0l5.45-3.707z"/></svg><svg viewBox="0 0 16 16" id="social-tel" xmlns="http://www.w3.org/2000/svg"><path fill-rule="evenodd" clip-rule="evenodd" d="M5.667 1.949a1 1 0 00-1 1v10.104a1 1 0 001 1h4.667a1 1 0 001-1V2.949a1 1 0 00-1-1h-.056l-.162.39a.667.667 0 01-.616.41h-3a.667.667 0 01-.615-.41l-.163-.39h-.055zm-2.333 1A2.333 2.333 0 015.667.615h4.667a2.333 2.333 0 012.333 2.334v10.104a2.333 2.333 0 01-2.333 2.333H5.667a2.333 2.333 0 01-2.333-2.333V2.949z"/></svg><svg viewBox="0 0 24 24" id="social-telegram" xmlns="http://www.w3.org/2000/svg"><path d="M9.633 15.181l-.364 5.584c.52 0 .746-.244 1.016-.537l2.441-2.545 5.059 4.041c.927.564 1.581.267 1.831-.93l3.32-16.973h.001c.295-1.497-.495-2.082-1.4-1.715L2.022 10.257c-1.332.564-1.311 1.374-.226 1.741l4.99 1.693 11.59-7.91c.545-.395 1.04-.177.633.217l-9.375 9.183z"/></svg><svg viewBox="0 0 24 24" id="social-twitter" xmlns="http://www.w3.org/2000/svg"><path d="M22.5 5.772a8.902 8.902 0 01-2.474.65 4.18 4.18 0 001.894-2.28 8.922 8.922 0 01-2.737 1 4.387 4.387 0 00-3.145-1.302c-2.379 0-4.308 1.847-4.308 4.124 0 .323.038.638.112.94-3.58-.173-6.754-1.815-8.879-4.31a3.962 3.962 0 00-.583 2.073c0 1.431.762 2.694 1.916 3.433a4.455 4.455 0 01-1.95-.518v.052c0 1.997 1.485 3.665 3.454 4.044-.36.093-.741.145-1.135.145a4.31 4.31 0 01-.81-.077c.548 1.64 2.138 2.832 4.023 2.865a8.89 8.89 0 01-5.35 1.763c-.348 0-.69-.02-1.028-.057a12.572 12.572 0 006.603 1.856c7.925 0 12.257-6.285 12.257-11.736l-.015-.534a8.412 8.412 0 002.155-2.13z"/></svg><svg viewBox="0 0 24 24" id="social-youtube" xmlns="http://www.w3.org/2000/svg"><path fill-rule="evenodd" clip-rule="evenodd" d="M21.39 4.114a3.007 3.007 0 012.116 2.115c.514 1.878.494 5.792.494 5.792s0 3.895-.494 5.773a3.007 3.007 0 01-2.116 2.115c-1.878.495-9.39.495-9.39.495s-7.493 0-9.39-.514a3.007 3.007 0 01-2.116-2.116C0 15.916 0 12.001 0 12.001S0 8.107.494 6.23A3.068 3.068 0 012.61 4.094C4.488 3.6 12 3.6 12 3.6s7.513 0 9.391.514zm-5.535 7.888L9.608 15.6V8.404l6.247 3.598z"/></svg><svg viewBox="0 0 16 16" id="tabs-community" xmlns="http://www.w3.org/2000/svg"><path fill-rule="evenodd" clip-rule="evenodd" d="M14.615 7.046a5.166 5.166 0 01-.653 1.858c.025.142.038.286.038.43 0 .502-.146.982-.415 1.419-.135.218-.17.473-.183.642-.015.193-.01.404.004.607.016.228.044.468.076.693-.26-.075-.542-.152-.812-.212a5.819 5.819 0 00-.66-.115c-.181-.019-.443-.034-.676.042a5.425 5.425 0 01-1.668.258 5.365 5.365 0 01-1.92-.343 8.824 8.824 0 01-2.712-.291C6.085 13.248 7.818 14 9.666 14a6.76 6.76 0 002.054-.315h.006c.016 0 .062 0 .147.008.134.014.306.044.504.09.395.088.839.22 1.184.33.734.232 1.445-.408 1.313-1.152-.056-.32-.115-.711-.138-1.05a2.96 2.96 0 01-.004-.413.783.783 0 01.01-.083c.375-.621.591-1.329.591-2.082 0-.849-.264-1.624-.718-2.288z"/><path fill-rule="evenodd" clip-rule="evenodd" d="M3.731 3.8c-.899.687-1.398 1.589-1.398 2.534 0 .471.123.925.353 1.347.088.161.113.327.121.44.01.122.005.248-.005.365a5.847 5.847 0 01-.134.766c-.07.307-.162.635-.255.943.352-.128.737-.259 1.102-.365.295-.086.593-.161.858-.203.228-.036.56-.072.845.027a6.48 6.48 0 002.115.347c1.432 0 2.703-.445 3.602-1.132.899-.688 1.398-1.59 1.398-2.535 0-.945-.5-1.847-1.398-2.535-.9-.687-2.17-1.132-3.602-1.132-1.431 0-2.703.445-3.602 1.132zm-.81-1.06c1.152-.88 2.714-1.406 4.412-1.406s3.26.526 4.412 1.406c1.152.881 1.921 2.146 1.921 3.594s-.769 2.713-1.921 3.594c-1.152.88-2.714 1.406-4.412 1.406-.895 0-1.75-.146-2.527-.412 0 .003-.064-.004-.225.022-.186.03-.423.087-.693.165a20.59 20.59 0 00-1.599.558c-.796.31-1.606-.455-1.338-1.27.142-.43.31-.976.419-1.447.055-.237.09-.436.104-.584a1.16 1.16 0 00.005-.114A4.117 4.117 0 011 6.334c0-1.448.77-2.713 1.922-3.594z"/></svg><svg viewBox="0 0 16 16" id="tabs-library" xmlns="http://www.w3.org/2000/svg"><path fill-rule="evenodd" clip-rule="evenodd" d="M7.702.736a.667.667 0 01.596 0l6.667 3.334a.667.667 0 010 1.192L8.298 8.596a.667.667 0 01-.596 0L1.035 5.262a.667.667 0 010-1.192L7.702.736zm-4.878 3.93L8 7.254l5.176-2.588L8 2.078 2.824 4.666z"/><path fill-rule="evenodd" clip-rule="evenodd" d="M.737 7.701a.667.667 0 01.894-.298L8 10.587l6.368-3.184a.667.667 0 11.597 1.193l-6.667 3.333a.667.667 0 01-.596 0L1.035 8.596A.667.667 0 01.737 7.7z"/><path fill-rule="evenodd" clip-rule="evenodd" d="M.737 11.034a.667.667 0 01.894-.298L8 13.921l6.368-3.185a.667.667 0 11.597 1.193l-6.667 3.333a.667.667 0 01-.596 0L1.035 11.93a.667.667 0 01-.298-.895z"/></svg><svg viewBox="0 0 16 16" id="tabs-support" xmlns="http://www.w3.org/2000/svg"><path fill-rule="evenodd" clip-rule="evenodd" d="M9.455 2.167c-.093 0-.18.05-.227.13l-.004.007-3.057 4.957v6.573h5.724c.123 0 .229-.085.255-.205l.003-.01 1.7-6.64a.262.262 0 00-.258-.312h-2.59c-.435 0-.874-.145-1.194-.457a1.406 1.406 0 01-.392-1.304l.48-2.426a.262.262 0 00-.258-.313h-.182zM4.833 13.834V7.739H2.471a.262.262 0 00-.262.26l-.042 5.571a.262.262 0 00.262.264h2.405zm.295-7.429l2.954-4.788A1.595 1.595 0 019.455.834h.182c1.005 0 1.76.918 1.565 1.904l-.479 2.426a.139.139 0 00-.002.067.057.057 0 00.017.025c.028.027.111.078.262.078h2.591c1.021 0 1.78.945 1.558 1.941l-.003.01-1.7 6.645a1.595 1.595 0 01-1.555 1.237H2.429A1.595 1.595 0 01.834 13.56l.042-5.571a1.595 1.595 0 011.595-1.584h2.657z"/></svg><svg viewBox="0 0 16 16" id="tabs-tutors" xmlns="http://www.w3.org/2000/svg"><path fill-rule="evenodd" clip-rule="evenodd" d="M6.78 1.467C7.241.4 8.756.4 9.22 1.467l1.401 3.231 3.506.334c1.16.11 1.627 1.551.755 2.322l-2.64 2.33.765 3.438c.253 1.136-.972 2.027-1.974 1.435L8 12.767l-3.033 1.79c-1.002.592-2.228-.299-1.975-1.435l.766-3.437-2.64-2.331c-.873-.77-.405-2.211.754-2.322l3.506-.334 1.401-3.23zm2.62 3.76L8 1.997l-1.401 3.23a1.33 1.33 0 01-1.095.795L2 6.356l2.64 2.331c.363.321.523.814.418 1.287L4.29 13.41l3.033-1.79a1.33 1.33 0 011.352 0l3.033 1.79-.766-3.437a1.33 1.33 0 01.418-1.287l2.64-2.33-3.506-.335a1.33 1.33 0 01-1.094-.795z"/></svg></svg>